# xmcd
#
# Track frame offsets: 
#        150
#        32947
#        68412
#        102205
#        140402
#        168690
#        206742
#        248065
#        288923
#        316431
#
# Disc length: 4664 seconds
#
# Revision: 2
# Processed by: cddbd v1.5.2PL0 Copyright (c) Steve Scherf et al.
# Submitted via: ExactAudioCopy v0.99pb5
#
DISCID=9012360a
DTITLE=Various Artist - Armind - The Collected 12  Mixes Vol.1 CD2
DYEAR=1900
DGENRE=Trance
TTITLE0=M.I.K.E. - Massive Motion
TTITLE1=Fragile feat. Alex Lemon - Inertia (Armin Van Buuren Remix)
TTITLE2=Armin Van Buuren - Shiver (Rising Star Remix)
TTITLE3=Synergy - Hello Strings
TTITLE4=Armin Van Buuren - Shivers (Tribal Feel Mix)
TTITLE5=Armin Van Buuren - Serenity
TTITLE6=Andy Moor - Halcyon
TTITLE7=Mike Foyle vs. Signalrunners - Love Theme Dusk (M.I.K.E.'s Bor
TTITLE7=ken Records Mix)
TTITLE8=Mode Hookers - Breathe (Original Mix)
TTITLE9=Armin Van Buuren feat. Nadia Ali - Who Is Watching (Mischa Dan
TTITLE9=iels Remix
EXTD=
EXTT0=
EXTT1=
EXTT2=
EXTT3=
EXTT4=
EXTT5=
EXTT6=
EXTT7=
EXTT8=
EXTT9=
PLAYORDER=
